<?xml version="1.0" encoding="utf-8"?>
<!-- Generator: Adobe Illustrator 23.0.1, SVG Export Plug-In . SVG Version: 6.00 Build 0)  -->
<svg fill="white" version="1.1" xmlns="http://www.w3.org/2000/svg" xmlns:xlink="http://www.w3.org/1999/xlink" x="0px" y="0px"
	 viewBox="0 0 592.9 885.6" style="enable-background:new 0 0 592.9 885.6;" xml:space="preserve">
<!-- <style type="text/css">
	.st0{display:none;}
	.st1{display:inline;}
	.st2{fill:#FFFFFF;
	background-color:blue;}
	#Capa_1{
	transform: scale(.1)
	}
</style> -->
<!-- <g id="Layer_2" class="st0">
	<rect class="st1" width="592.9" height="885.6"/>
</g> -->
<g id="Capa_1">
	<g>
		<g>
			<path class="st2" d="M424.8,587.3l-63.9-135.8c3.1-103.6,5.7-272.3,1.3-310.4c-6.6-57-52.8-125.9-54.8-128.8
				c-1.8-2.6-4.7-4.2-7.9-4.2h-4.1c-3.2,0-6.1,1.6-7.9,4.2c-2,2.9-48.2,71.8-54.8,128.8c-4.4,37.8-2,201.3,1.1,306.8l-65.6,139.4
				l88.9-22.8l-10.1,23.1c-2.3,5.1,0.3,11.7,7,13.4h80.2h0.1c4.4,0,8.4-2.9,9.4-7.2c0.7-2.9,0.1-5.6-1.4-7.7l-9.3-21.8L424.8,587.3z
				 M268.2,164.9c-1.2-18.8,14.3-34.3,33.1-33.1c15.5,1,28.1,13.6,29,29c1.2,18.8-14.3,34.3-33.1,33.1
				C281.8,193,269.2,180.4,268.2,164.9z"/>
		</g>
	</g>
	<path class="st2" d="M311.4,626.9c-8.7-7.1-21.2-7.1-29.9,0c-79.8,65.7,15,237.1,15,237.1S391.2,692.6,311.4,626.9z M296.4,784
		c0,0-36.9-66.7-5.8-92.3c3.4-2.8,8.3-2.8,11.6,0C333.3,717.2,296.4,784,296.4,784z"/>
</g>
</svg>
